<svg width="16" height="21" viewBox="0 0 16 21" fill="none" xmlns="http://www.w3.org/2000/svg">
<g filter="url(#filter0_d)">
<path d="M5.8125 15C5.31234 15 3.81152 15 2.61745 15C1.87407 15 1.39116 14.2177 1.72361 13.5528L2.32771 12.3446C2.60542 11.7892 2.75 11.1772 2.75 10.5563C2.75 9.88701 2.75 8.9435 2.75 8C2.75 6.25 3.625 2.75 8 2.75C12.375 2.75 13.25 6.25 13.25 8C13.25 8.9435 13.25 9.88701 13.25 10.5563C13.25 11.1772 13.3946 11.7892 13.6723 12.3446L14.2764 13.5528C14.6088 14.2177 14.1253 15 13.382 15H10.1875M5.8125 15C5.8125 16.75 6.6875 17.625 8 17.625C9.3125 17.625 10.1875 16.75 10.1875 15M5.8125 15C7.17934 15 10.1875 15 10.1875 15" stroke="black" stroke-linejoin="round"/>
</g>
<g filter="url(#filter1_d)">
<path d="M8 2.75V1" stroke="black" stroke-linecap="round" stroke-linejoin="round"/>
</g>
<defs>
<filter id="filter0_d" x="0.116058" y="2.25" width="15.7678" height="17.875" filterUnits="userSpaceOnUse" color-interpolation-filters="sRGB">
<feFlood flood-opacity="0" result="BackgroundImageFix"/>
<feColorMatrix in="SourceAlpha" type="matrix" values="0 0 0 0 0 0 0 0 0 0 0 0 0 0 0 0 0 0 127 0"/>
<feOffset dy="1"/>
<feGaussianBlur stdDeviation="0.5"/>
<feColorMatrix type="matrix" values="0 0 0 0 0 0 0 0 0 0 0 0 0 0 0 0 0 0 0.1 0"/>
<feBlend mode="normal" in2="BackgroundImageFix" result="effect1_dropShadow"/>
<feBlend mode="normal" in="SourceGraphic" in2="effect1_dropShadow" result="shape"/>
</filter>
<filter id="filter1_d" x="6.5" y="0.5" width="3" height="4.75" filterUnits="userSpaceOnUse" color-interpolation-filters="sRGB">
<feFlood flood-opacity="0" result="BackgroundImageFix"/>
<feColorMatrix in="SourceAlpha" type="matrix" values="0 0 0 0 0 0 0 0 0 0 0 0 0 0 0 0 0 0 127 0"/>
<feOffset dy="1"/>
<feGaussianBlur stdDeviation="0.5"/>
<feColorMatrix type="matrix" values="0 0 0 0 0 0 0 0 0 0 0 0 0 0 0 0 0 0 0.1 0"/>
<feBlend mode="normal" in2="BackgroundImageFix" result="effect1_dropShadow"/>
<feBlend mode="normal" in="SourceGraphic" in2="effect1_dropShadow" result="shape"/>
</filter>
</defs>
</svg>
